grf
version=1
nRows=11
nColumns=37
inDegrees=no
endheader
time	ground_force_1_vx	ground_force_1_vy	ground_force_1_vz	ground_force_1_px	ground_force_1_py	ground_force_1_pz	ground_moment_1_mx	ground_moment_1_my	ground_moment_1_mz	ground_force_2_vx	ground_force_2_vy	ground_force_2_vz	ground_force_2_px	ground_force_2_py	ground_force_2_pz	ground_moment_2_mx	ground_moment_2_my	ground_moment_2_mz	ground_force_3_vx	ground_force_3_vy	ground_force_3_vz	ground_force_3_px	ground_force_3_py	ground_force_3_pz	ground_moment_3_mx	ground_moment_3_my	ground_moment_3_mz	ground_force_4_vx	ground_force_4_vy	ground_force_4_vz	ground_force_4_px	ground_force_4_py	ground_force_4_pz	ground_moment_4_mx	ground_moment_4_my	ground_moment_4_mz
      4.65000000	      0.00000000	     -0.00000000	      0.00000000	      0.00000000	      0.00000000	      0.00000000	      0.00000000	      0.00000000	      0.00000000	    -16.29150963	     25.03826714	   -396.62109375	   -284.63854951	  -1087.98232137	      0.00000000	      0.00000000	      0.00000000	  13084.34273030	     20.36242276	    -23.92860781	   -385.86642456	   -317.04073535	   -706.63987344	      0.00000000	      0.00000000	     -0.00000000	  -7585.36290904	      0.00000000	     -0.00000000	      0.00000000	      0.00000000	      0.00000000	      0.00000000	      0.00000000	      0.00000000	      0.00000000
      4.66000000	      0.00000000	     -0.00000000	      0.00000000	      0.00000000	      0.00000000	      0.00000000	      0.00000000	      0.00000000	      0.00000000	    -15.64559078	     23.36783791	   -394.22756958	   -283.83435270	  -1087.99125866	      0.00000000	     -0.00000000	      0.00000000	  13084.31077570	     21.37929713	    -23.25598713	   -382.83251953	   -316.66860359	   -707.20593548	      0.00000000	     -0.00000000	     -0.00000000	  -7638.67880444	      0.00000000	     -0.00000000	      0.00000000	      0.00000000	      0.00000000	      0.00000000	      0.00000000	      0.00000000	      0.00000000
      4.67000000	      0.00000000	     -0.00000000	      0.00000000	      0.00000000	      0.00000000	      0.00000000	      0.00000000	      0.00000000	      0.00000000	    -15.76794910	     23.58613777	   -389.59060669	   -284.05298155	  -1086.80008624	      0.00000000	     -0.00000000	      0.00000000	  12839.68375727	     22.21110147	    -22.48073581	   -379.31018066	   -316.62257272	   -707.05028096	      0.00000000	      0.00000000	     -0.00000000	  -7693.32206666	      0.00000000	     -0.00000000	      0.00000000	      0.00000000	      0.00000000	      0.00000000	      0.00000000	      0.00000000	      0.00000000
      4.68000000	      0.00000000	     -0.00000000	      0.00000000	      0.00000000	      0.00000000	      0.00000000	      0.00000000	      0.00000000	      0.00000000	    -15.56982136	     23.87812424	   -389.12838745	   -283.48022106	  -1087.64522143	      0.00000000	      0.00000000	      0.00000000	  13001.19673185	     22.93441774	    -21.63881502	   -375.09817505	   -316.32254096	   -707.68201655	      0.00000000	     -0.00000000	     -0.00000000	  -7771.47732443	      0.00000000	     -0.00000000	      0.00000000	      0.00000000	      0.00000000	      0.00000000	      0.00000000	      0.00000000	      0.00000000
      4.69000000	      0.00000000	     -0.00000000	      0.00000000	      0.00000000	      0.00000000	      0.00000000	      0.00000000	      0.00000000	      0.00000000	    -16.02496910	     24.05114937	   -389.76138306	   -282.66768318	  -1087.80128465	      0.00000000	      0.00000000	      0.00000000	  12909.31626603	     23.06480221	    -21.37384998	   -375.22814941	   -315.64415177	   -707.29573114	      0.00000000	      0.00000000	     -0.00000000	  -7884.73127190	      0.00000000	     -0.00000000	      0.00000000	      0.00000000	      0.00000000	      0.00000000	      0.00000000	      0.00000000	      0.00000000
      4.70000000	      0.00000000	     -0.00000000	      0.00000000	      0.00000000	      0.00000000	      0.00000000	      0.00000000	      0.00000000	      0.00000000	    -17.60276604	     24.73584747	   -394.14880371	   -282.11128052	  -1087.39391403	      0.00000000	      0.00000000	      0.00000000	  12959.32673114	     22.60721596	    -20.91377074	   -372.83868408	   -315.21488012	   -707.19475969	      0.00000000	      0.00000000	     -0.00000000	  -7937.60171646	      0.00000000	     -0.00000000	      0.00000000	      0.00000000	      0.00000000	      0.00000000	      0.00000000	      0.00000000	      0.00000000
      4.71000000	      0.00000000	     -0.00000000	      0.00000000	      0.00000000	      0.00000000	      0.00000000	      0.00000000	      0.00000000	      0.00000000	    -19.51263046	     25.09612656	   -397.51184082	   -281.86746968	  -1088.63224550	      0.00000000	      0.00000000	      0.00000000	  12926.82391974	     22.91556938	    -20.91820917	   -369.73522949	   -314.64471090	   -707.32744779	      0.00000000	      0.00000000	     -0.00000000	  -7981.43004565	      0.00000000	     -0.00000000	      0.00000000	      0.00000000	      0.00000000	      0.00000000	      0.00000000	      0.00000000	      0.00000000
      4.72000000	      0.00000000	     -0.00000000	      0.00000000	      0.00000000	      0.00000000	      0.00000000	      0.00000000	      0.00000000	      0.00000000	    -20.52197075	     25.79431534	   -400.33648682	   -280.79080388	  -1088.58110281	      0.00000000	      0.00000000	      0.00000000	  13035.38556827	     22.45798686	    -21.49410253	   -370.22695923	   -313.19759626	   -705.69522380	      0.00000000	      0.00000000	     -0.00000000	  -7879.65737758	      0.00000000	     -0.00000000	      0.00000000	      0.00000000	      0.00000000	      0.00000000	      0.00000000	      0.00000000	      0.00000000
      4.73000000	      0.00000000	     -0.00000000	      0.00000000	      0.00000000	      0.00000000	      0.00000000	      0.00000000	      0.00000000	      0.00000000	    -21.89962959	     25.75868607	   -404.81332397	   -280.66404275	  -1089.48744753	      0.00000000	     -0.00000000	      0.00000000	  13072.60819274	     22.24123762	    -22.02373508	   -371.97152710	   -312.75436536	   -705.82792170	      0.00000000	      0.00000000	     -0.00000000	  -8081.03099760	      0.00000000	     -0.00000000	      0.00000000	      0.00000000	      0.00000000	      0.00000000	      0.00000000	      0.00000000	      0.00000000
      4.74000000	      0.00000000	     -0.00000000	      0.00000000	      0.00000000	      0.00000000	      0.00000000	      0.00000000	      0.00000000	      0.00000000	    -22.74868011	     25.90813828	   -408.22967529	   -279.66185393	  -1088.51971336	      0.00000000	      0.00000000	      0.00000000	  13043.29329710	     21.05305475	    -22.46218484	   -375.33801270	   -312.11806956	   -705.33484849	      0.00000000	      0.00000000	     -0.00000000	  -8159.95264526	      0.00000000	     -0.00000000	      0.00000000	      0.00000000	      0.00000000	      0.00000000	      0.00000000	      0.00000000	      0.00000000
      4.75000000	      0.00000000	     -0.00000000	      0.00000000	      0.00000000	      0.00000000	      0.00000000	      0.00000000	      0.00000000	      0.00000000	    -23.16349220	     25.72747421	   -412.62890625	   -280.62694660	  -1088.83664196	      0.00000000	      0.00000000	      0.00000000	  13242.79535271	     18.90977082	    -23.53895543	   -376.56488037	   -310.87257550	   -705.59661986	      0.00000000	      0.00000000	     -0.00000000	  -8132.32195761	      0.00000000	     -0.00000000	      0.00000000	      0.00000000	      0.00000000	      0.00000000	      0.00000000	      0.00000000	      0.00000000
